<svg id="Layer_1" data-name="Layer 1" xmlns="http://www.w3.org/2000/svg" xmlns:xlink="http://www.w3.org/1999/xlink" viewBox="0 0 600 220">
    <defs>
        <style>.cls-1{fill:#004184;}.cls-2{fill:url(#linear-gradient);}.cls-3,.cls-4,.cls-5{fill-rule:evenodd;}.cls-3{fill:url(#linear-gradient-2);}.cls-4{fill:url(#linear-gradient-3);}.cls-5{fill:url(#linear-gradient-4);}</style>
        <linearGradient id="linear-gradient" x1="-5622.21" y1="-2850.49" x2="-5621.21" y2="-2850.49" gradientTransform="matrix(-36.05, -21.79, -21.79, 36.05, -264652.58, -19639.87)" gradientUnits="userSpaceOnUse">
            <stop offset="0" stop-color="#004184" />
            <stop offset="0.47" stop-color="#004082" />
            <stop offset="0.64" stop-color="#003d7b" />
            <stop offset="0.77" stop-color="#003770" />
            <stop offset="0.86" stop-color="#002f5f" />
            <stop offset="0.95" stop-color="#002449" />
            <stop offset="1" stop-color="#001b37" />
        </linearGradient>
        <linearGradient id="linear-gradient-2" x1="155.87" y1="132.06" x2="103.83" y2="148.66" gradientTransform="matrix(1, 0, 0, 1, 0, 0)" xlink:href="#linear-gradient" />
        <linearGradient id="linear-gradient-3" x1="108.41" y1="168.02" x2="84.8" y2="83.52" gradientUnits="userSpaceOnUse">
            <stop offset="0" stop-color="#bd2025" />
            <stop offset="0.05" stop-color="#c81f33" />
            <stop offset="0.13" stop-color="#d81e47" />
            <stop offset="0.23" stop-color="#e41e55" />
            <stop offset="0.35" stop-color="#eb1d5d" />
            <stop offset="0.56" stop-color="#ed1d60" />
            <stop offset="0.67" stop-color="#ea1d5e" />
            <stop offset="0.75" stop-color="#e01d57" />
            <stop offset="0.83" stop-color="#d01c4b" />
            <stop offset="0.9" stop-color="#b91b3b" />
            <stop offset="0.97" stop-color="#9c1a26" />
            <stop offset="1" stop-color="#8c1a1b" />
        </linearGradient>
        <linearGradient id="linear-gradient-4" x1="78.3" y1="81.29" x2="147.68" y2="59.52" gradientUnits="userSpaceOnUse">
            <stop offset="0" stop-color="#c99d00" />
            <stop offset="1" stop-color="#fab301" />
        </linearGradient>
    </defs>
    <title>Cymptom Color</title>
    <path class="cls-1" d="M232.83,145.09a20.94,20.94,0,0,1-6.22-.84,24.86,24.86,0,0,1-5.12-2.26l4.29-9.24A13.82,13.82,0,0,0,228.5,134a8.34,8.34,0,0,0,2.73.5,4.81,4.81,0,0,0,2.65-.63,5.6,5.6,0,0,0,1.8-2.3L218.05,86.4h13.52l10.24,30.65,9.83-30.65h13.27l-17.3,46.1a35.37,35.37,0,0,1-2.69,5.84,16.17,16.17,0,0,1-3.15,3.9,10.45,10.45,0,0,1-3.9,2.18,17.14,17.14,0,0,1-5,.67" />
    <path class="cls-1" d="M270.82,86.4h12.77v6.43A27.9,27.9,0,0,1,286,90.09a16.46,16.46,0,0,1,2.9-2.33,14.18,14.18,0,0,1,3.57-1.61,15.41,15.41,0,0,1,4.4-.59,15.18,15.18,0,0,1,7.69,1.86,12.55,12.55,0,0,1,5,5.33,20.53,20.53,0,0,1,6.55-5.37,18.09,18.09,0,0,1,8.23-1.82q7.14,0,11.17,4.2t4,12.34v29.31H326.75v-25c0-3-.65-5.29-1.93-6.82a6.83,6.83,0,0,0-5.55-2.31,7.19,7.19,0,0,0-5.66,2.31c-1.38,1.53-2.06,3.81-2.06,6.82v25H298.79v-25c0-3-.65-5.29-1.94-6.82a6.8,6.8,0,0,0-5.54-2.31,7.23,7.23,0,0,0-5.67,2.31c-1.37,1.53-2.05,3.81-2.05,6.82v25H270.82Z" />
    <path class="cls-1" d="M372.47,121.42a10.26,10.26,0,0,0,4.24-.89,10.53,10.53,0,0,0,3.48-2.51,12.16,12.16,0,0,0,2.39-3.91,14,14,0,0,0,.89-5.12v-.17a14.08,14.08,0,0,0-.89-5.08,11.93,11.93,0,0,0-2.39-3.95,10.7,10.7,0,0,0-3.48-2.52,10.65,10.65,0,0,0-8.48,0,10.18,10.18,0,0,0-3.45,2.52,12.74,12.74,0,0,0-2.35,3.95,14.29,14.29,0,0,0-.88,5.08V109a14.29,14.29,0,0,0,.88,5.08,12.86,12.86,0,0,0,2.35,4,10,10,0,0,0,3.45,2.51,10.23,10.23,0,0,0,4.24.89M349,86.4h12.76v6.47a20.24,20.24,0,0,1,5.67-5.25,15.59,15.59,0,0,1,8.35-2.06,20.13,20.13,0,0,1,7.64,1.51,18.83,18.83,0,0,1,6.55,4.5,22.25,22.25,0,0,1,4.58,7.3,26.7,26.7,0,0,1,1.72,9.95V109a26.7,26.7,0,0,1-1.72,10,22.67,22.67,0,0,1-4.54,7.3,18.46,18.46,0,0,1-6.5,4.5,20.39,20.39,0,0,1-7.73,1.51,16,16,0,0,1-8.44-2,22.45,22.45,0,0,1-5.58-4.7v19.31H349Z" />
    <path class="cls-1" d="M419.2,132.16a21,21,0,0,1-5.34-.63,9.56,9.56,0,0,1-4.11-2.22,10.71,10.71,0,0,1-2.69-4.16,18.72,18.72,0,0,1-1-6.51V97.32h-5.38V86.4h5.38V74.9h12.76V86.4h10.58V97.32H418.86v19.29c0,2.92,1.37,4.39,4.11,4.39a12.49,12.49,0,0,0,6.3-1.68v10.24a19.08,19.08,0,0,1-10.07,2.6" />
    <path class="cls-1" d="M459.46,121.42a11.88,11.88,0,0,0,4.91-1,10.81,10.81,0,0,0,3.65-2.64,11.74,11.74,0,0,0,2.31-3.91,14,14,0,0,0,.8-4.74V109a13.38,13.38,0,0,0-.84-4.75,11.91,11.91,0,0,0-6.21-6.67,11.33,11.33,0,0,0-4.79-1,11.73,11.73,0,0,0-4.91,1,10.67,10.67,0,0,0-3.65,2.64,11.54,11.54,0,0,0-2.31,3.91,13.72,13.72,0,0,0-.8,4.74V109a13.28,13.28,0,0,0,.84,4.74,12,12,0,0,0,6.17,6.68,11.25,11.25,0,0,0,4.83,1m-.17,11a25.55,25.55,0,0,1-9.66-1.81,23.77,23.77,0,0,1-7.68-5,23.21,23.21,0,0,1-5.08-7.39,22.62,22.62,0,0,1-1.85-9.11V109a22.58,22.58,0,0,1,1.85-9.11A23.12,23.12,0,0,1,442,92.45a24.27,24.27,0,0,1,7.73-5,26.62,26.62,0,0,1,19.4,0,23.61,23.61,0,0,1,7.68,4.95,23.1,23.1,0,0,1,5.08,7.39,22.58,22.58,0,0,1,1.85,9.11V109a22.58,22.58,0,0,1-1.85,9.11,23.23,23.23,0,0,1-5.12,7.43,24.27,24.27,0,0,1-7.73,5,25.19,25.19,0,0,1-9.74,1.85" />
    <path class="cls-1" d="M491.32,86.4h12.77v6.43a27.9,27.9,0,0,1,2.39-2.74,16.46,16.46,0,0,1,2.9-2.33A14.18,14.18,0,0,1,513,86.15a15.41,15.41,0,0,1,4.4-.59A15.18,15.18,0,0,1,525,87.42a12.55,12.55,0,0,1,5,5.33,20.53,20.53,0,0,1,6.55-5.37,18.09,18.09,0,0,1,8.23-1.82q7.14,0,11.17,4.2t4,12.34v29.31H547.25v-25c0-3-.65-5.29-1.93-6.82a6.83,6.83,0,0,0-5.55-2.31,7.19,7.19,0,0,0-5.66,2.31c-1.37,1.53-2.06,3.81-2.06,6.82v25H519.29v-25c0-3-.65-5.29-1.94-6.82a6.8,6.8,0,0,0-5.54-2.31,7.23,7.23,0,0,0-5.67,2.31c-1.37,1.53-2.05,3.81-2.05,6.82v25H491.32Z" />
    <path class="cls-1" d="M206.36,100.54a20.28,20.28,0,0,0-3.51-2.64,11.32,11.32,0,0,0-5.75-1.34,9.84,9.84,0,0,0-4.41,1,10.88,10.88,0,0,0-3.44,2.64,12,12,0,0,0-2.27,3.91,14,14,0,0,0-.79,4.74V109a14.63,14.63,0,0,0,.79,4.87,11.39,11.39,0,0,0,2.31,3.94,10.94,10.94,0,0,0,3.61,2.65,11.19,11.19,0,0,0,4.7,1,11.51,11.51,0,0,0,5.59-1.31,22.3,22.3,0,0,0,4-2.84l8.19,6.92a28.58,28.58,0,0,1-7.47,5.92q-4.2,2.31-10.91,2.31a23.58,23.58,0,0,1-9.36-1.85,22.62,22.62,0,0,1-12.31-12.39,23.32,23.32,0,0,1-1.76-9V109a23.68,23.68,0,0,1,1.76-9.07,23.38,23.38,0,0,1,4.87-7.47,22.66,22.66,0,0,1,7.44-5,24,24,0,0,1,9.53-1.85,24.34,24.34,0,0,1,10.58,2,23.69,23.69,0,0,1,7.38,5.54Z" />
    <circle class="cls-2" cx="134.13" cy="110" r="21.08" />
    <path class="cls-3" d="M95.93,110c0,30.41,8.49,48.91,23.74,65.27a66.06,66.06,0,0,0,60.22-16.77l-22.16-18.7A38.09,38.09,0,0,1,95.93,110Z" />
    <path class="cls-4" d="M119.67,175.28C104.42,158.92,95.93,140.42,95.93,110h0a38.1,38.1,0,0,1,37.81-38.09c-31.08.12-69.53,14.35-93.16,37.62l-.55.54,47.12,47.21A66.19,66.19,0,0,0,119.67,175.28Z" />
    <path class="cls-5" d="M157.73,80.19l22.16-18.7a66.12,66.12,0,0,0-92.61,1.1l-46.7,46.94C64.21,86.26,102.66,72,133.74,71.91H134A38.1,38.1,0,0,1,157.73,80.19Z" />
</svg>
